<mxfile host="app.diagrams.net" agent="Mozilla/5.0 (X11; CrOS x86_64 14541.0.0) AppleWebKit/537.36 (KHTML, like Gecko) Chrome/126.0.0.0 Safari/537.36" version="24.7.5">
  <diagram id="C5RBs43oDa-KdzZeNtuy" name="Page-1">
    <mxGraphModel dx="911" dy="444" grid="1" gridSize="10" guides="1" tooltips="1" connect="1" arrows="1" fold="1" page="1" pageScale="1" pageWidth="827" pageHeight="1169" background="none" math="0" shadow="0">
      <root>
        <mxCell id="WIyWlLk6GJQsqaUBKTNV-0" />
        <mxCell id="WIyWlLk6GJQsqaUBKTNV-1" parent="WIyWlLk6GJQsqaUBKTNV-0" />
        <mxCell id="WIyWlLk6GJQsqaUBKTNV-2" value="" style="rounded=0;html=1;jettySize=auto;orthogonalLoop=1;fontSize=11;endArrow=block;endFill=0;endSize=8;strokeWidth=1;shadow=0;labelBackgroundColor=none;edgeStyle=orthogonalEdgeStyle;" parent="WIyWlLk6GJQsqaUBKTNV-1" source="WIyWlLk6GJQsqaUBKTNV-3" edge="1">
          <mxGeometry relative="1" as="geometry">
            <mxPoint x="220" y="160" as="targetPoint" />
          </mxGeometry>
        </mxCell>
        <mxCell id="WIyWlLk6GJQsqaUBKTNV-3" value="User gets message of the game&#39;s rules and instructions on how toplay" style="rounded=1;whiteSpace=wrap;html=1;fontSize=15;glass=0;strokeWidth=1;shadow=0;" parent="WIyWlLk6GJQsqaUBKTNV-1" vertex="1">
          <mxGeometry x="135" y="60" width="170" height="80" as="geometry" />
        </mxCell>
        <mxCell id="WIyWlLk6GJQsqaUBKTNV-4" value="Yes" style="rounded=0;html=1;jettySize=auto;orthogonalLoop=1;fontSize=11;endArrow=block;endFill=0;endSize=8;strokeWidth=1;shadow=0;labelBackgroundColor=none;edgeStyle=orthogonalEdgeStyle;" parent="WIyWlLk6GJQsqaUBKTNV-1" edge="1">
          <mxGeometry y="20" relative="1" as="geometry">
            <mxPoint as="offset" />
            <mxPoint x="220" y="250" as="sourcePoint" />
            <mxPoint x="220" y="290" as="targetPoint" />
          </mxGeometry>
        </mxCell>
        <mxCell id="WIyWlLk6GJQsqaUBKTNV-5" value="No" style="edgeStyle=orthogonalEdgeStyle;rounded=0;html=1;jettySize=auto;orthogonalLoop=1;fontSize=11;endArrow=block;endFill=0;endSize=8;strokeWidth=1;shadow=0;labelBackgroundColor=none;" parent="WIyWlLk6GJQsqaUBKTNV-1" target="WIyWlLk6GJQsqaUBKTNV-7" edge="1">
          <mxGeometry y="10" relative="1" as="geometry">
            <mxPoint as="offset" />
            <mxPoint x="270" y="225" as="sourcePoint" />
            <Array as="points">
              <mxPoint x="270" y="226" />
              <mxPoint x="290" y="226" />
              <mxPoint x="290" y="210" />
            </Array>
          </mxGeometry>
        </mxCell>
        <mxCell id="WIyWlLk6GJQsqaUBKTNV-7" value="&lt;font style=&quot;font-size: 14px;&quot;&gt;Please enter a number.&lt;/font&gt;" style="rounded=1;whiteSpace=wrap;html=1;fontSize=12;glass=0;strokeWidth=1;shadow=0;" parent="WIyWlLk6GJQsqaUBKTNV-1" vertex="1">
          <mxGeometry x="362" y="190" width="120" height="40" as="geometry" />
        </mxCell>
        <mxCell id="WIyWlLk6GJQsqaUBKTNV-8" value="No" style="rounded=0;html=1;jettySize=auto;orthogonalLoop=1;fontSize=11;endArrow=block;endFill=0;endSize=8;strokeWidth=1;shadow=0;labelBackgroundColor=none;edgeStyle=orthogonalEdgeStyle;" parent="WIyWlLk6GJQsqaUBKTNV-1" target="WIyWlLk6GJQsqaUBKTNV-11" edge="1">
          <mxGeometry x="0.3333" y="20" relative="1" as="geometry">
            <mxPoint as="offset" />
            <mxPoint x="220" y="370" as="sourcePoint" />
          </mxGeometry>
        </mxCell>
        <mxCell id="WIyWlLk6GJQsqaUBKTNV-9" value="Yes" style="edgeStyle=orthogonalEdgeStyle;rounded=0;html=1;jettySize=auto;orthogonalLoop=1;fontSize=11;endArrow=block;endFill=0;endSize=8;strokeWidth=1;shadow=0;labelBackgroundColor=none;" parent="WIyWlLk6GJQsqaUBKTNV-1" target="WIyWlLk6GJQsqaUBKTNV-12" edge="1">
          <mxGeometry y="10" relative="1" as="geometry">
            <mxPoint as="offset" />
            <mxPoint x="270" y="330" as="sourcePoint" />
          </mxGeometry>
        </mxCell>
        <mxCell id="WIyWlLk6GJQsqaUBKTNV-11" value="&lt;font style=&quot;font-size: 15px;&quot;&gt;Please enter a number (1-3)&lt;/font&gt;" style="rounded=1;whiteSpace=wrap;html=1;fontSize=12;glass=0;strokeWidth=1;shadow=0;" parent="WIyWlLk6GJQsqaUBKTNV-1" vertex="1">
          <mxGeometry x="160" y="430" width="120" height="40" as="geometry" />
        </mxCell>
        <mxCell id="xj6sJ9l3UCuqw12n9X3N-2" style="edgeStyle=orthogonalEdgeStyle;rounded=0;orthogonalLoop=1;jettySize=auto;html=1;exitX=1;exitY=0.5;exitDx=0;exitDy=0;" edge="1" parent="WIyWlLk6GJQsqaUBKTNV-1" source="WIyWlLk6GJQsqaUBKTNV-12">
          <mxGeometry relative="1" as="geometry">
            <mxPoint x="540" y="340" as="targetPoint" />
          </mxGeometry>
        </mxCell>
        <mxCell id="WIyWlLk6GJQsqaUBKTNV-12" value="&lt;font style=&quot;font-size: 15px;&quot;&gt;User is asked how many bottle caps do they wish to put down on each of the chosen lines&lt;/font&gt;" style="rounded=1;whiteSpace=wrap;html=1;fontSize=12;glass=0;strokeWidth=1;shadow=0;" parent="WIyWlLk6GJQsqaUBKTNV-1" vertex="1">
          <mxGeometry x="354" y="280" width="136" height="120" as="geometry" />
        </mxCell>
        <mxCell id="xj6sJ9l3UCuqw12n9X3N-0" value="&lt;font style=&quot;font-size: 14px;&quot;&gt;User is asked how many bottlecaps do they wish to deposit&lt;/font&gt;" style="whiteSpace=wrap;html=1;aspect=fixed;" vertex="1" parent="WIyWlLk6GJQsqaUBKTNV-1">
          <mxGeometry x="175" y="165" width="90" height="90" as="geometry" />
        </mxCell>
        <mxCell id="xj6sJ9l3UCuqw12n9X3N-1" value="&lt;font style=&quot;font-size: 16px;&quot;&gt;User is then asked how many lines do they wish to play on&lt;/font&gt;" style="whiteSpace=wrap;html=1;aspect=fixed;" vertex="1" parent="WIyWlLk6GJQsqaUBKTNV-1">
          <mxGeometry x="167.5" y="290" width="105" height="105" as="geometry" />
        </mxCell>
        <mxCell id="xj6sJ9l3UCuqw12n9X3N-5" style="edgeStyle=orthogonalEdgeStyle;rounded=0;orthogonalLoop=1;jettySize=auto;html=1;exitX=0.5;exitY=1;exitDx=0;exitDy=0;" edge="1" parent="WIyWlLk6GJQsqaUBKTNV-1" source="xj6sJ9l3UCuqw12n9X3N-3">
          <mxGeometry relative="1" as="geometry">
            <mxPoint x="595" y="450" as="targetPoint" />
          </mxGeometry>
        </mxCell>
        <mxCell id="xj6sJ9l3UCuqw12n9X3N-3" value="&lt;font style=&quot;font-size: 15px;&quot;&gt;Once the user has deposited their bottlecaps and chosen how many lines to play, the vending mcahine will display random lines with symbols&lt;/font&gt;" style="rounded=1;whiteSpace=wrap;html=1;" vertex="1" parent="WIyWlLk6GJQsqaUBKTNV-1">
          <mxGeometry x="520" y="250" width="150" height="150" as="geometry" />
        </mxCell>
        <mxCell id="xj6sJ9l3UCuqw12n9X3N-13" value="" style="edgeStyle=orthogonalEdgeStyle;rounded=0;orthogonalLoop=1;jettySize=auto;html=1;" edge="1" parent="WIyWlLk6GJQsqaUBKTNV-1" source="xj6sJ9l3UCuqw12n9X3N-9" target="xj6sJ9l3UCuqw12n9X3N-12">
          <mxGeometry relative="1" as="geometry" />
        </mxCell>
        <mxCell id="xj6sJ9l3UCuqw12n9X3N-15" value="" style="edgeStyle=orthogonalEdgeStyle;rounded=0;orthogonalLoop=1;jettySize=auto;html=1;" edge="1" parent="WIyWlLk6GJQsqaUBKTNV-1" source="xj6sJ9l3UCuqw12n9X3N-9" target="xj6sJ9l3UCuqw12n9X3N-14">
          <mxGeometry relative="1" as="geometry" />
        </mxCell>
        <mxCell id="xj6sJ9l3UCuqw12n9X3N-9" value="&lt;font style=&quot;font-size: 14px;&quot;&gt;If there is any lines with 3 matching symbols the users deposit will be multiplied, balance will be updated and displayed to the user.&lt;/font&gt;" style="whiteSpace=wrap;html=1;" vertex="1" parent="WIyWlLk6GJQsqaUBKTNV-1">
          <mxGeometry x="520" y="453" width="150" height="137" as="geometry" />
        </mxCell>
        <mxCell id="xj6sJ9l3UCuqw12n9X3N-12" value="I&lt;font style=&quot;font-size: 14px;&quot;&gt;f the user wins on lines from 1 - 3 their balance will be updated, they can continue playing if they like or type q to quit.&lt;/font&gt;" style="whiteSpace=wrap;html=1;" vertex="1" parent="WIyWlLk6GJQsqaUBKTNV-1">
          <mxGeometry x="320" y="454" width="140" height="135" as="geometry" />
        </mxCell>
        <mxCell id="xj6sJ9l3UCuqw12n9X3N-14" value="I&lt;font style=&quot;font-size: 14px;&quot;&gt;f the user does not have any matching lines their balance will be deducted, if there balance remains more than 1 the program will run till equal to 0.&lt;/font&gt;" style="whiteSpace=wrap;html=1;" vertex="1" parent="WIyWlLk6GJQsqaUBKTNV-1">
          <mxGeometry x="517.5" y="660" width="155" height="140" as="geometry" />
        </mxCell>
        <mxCell id="xj6sJ9l3UCuqw12n9X3N-16" value="No" style="text;html=1;align=center;verticalAlign=middle;resizable=0;points=[];autosize=1;strokeColor=none;fillColor=none;" vertex="1" parent="WIyWlLk6GJQsqaUBKTNV-1">
          <mxGeometry x="600" y="608" width="40" height="30" as="geometry" />
        </mxCell>
        <mxCell id="xj6sJ9l3UCuqw12n9X3N-17" value="Yes" style="text;html=1;align=center;verticalAlign=middle;resizable=0;points=[];autosize=1;strokeColor=none;fillColor=none;" vertex="1" parent="WIyWlLk6GJQsqaUBKTNV-1">
          <mxGeometry x="470" y="488" width="40" height="30" as="geometry" />
        </mxCell>
      </root>
    </mxGraphModel>
  </diagram>
</mxfile>
